<svg xmlns="http://www.w3.org/2000/svg" 
viewBox="320 260 360 380">
<g fill="#333D51" fill-opacity="0.76" stroke="None">
<path d="
M 486.00 276.00 
C 495.33 276.00 504.67 276.00 514.00 276.00
C 505.26 275.15 494.81 275.15 486.00 276.00 Z"/>
</g>
<g fill="#333D51" fill-opacity="0.27" stroke="None">
<path d="
M 450.00 277.00 
C 452.58 276.68 455.40 277.00 458.00 277.00
C 459.00 277.00 460.00 277.00 461.00 277.00
C 462.93 277.01 464.77 276.17 466.00 276.00
C 460.83 276.00 454.42 275.20 450.00 277.00 Z"/>
</g>
<g fill="#E5ECEC" fill-opacity="0.98" stroke="None">
<path d="
M 461.00 277.00 
C 452.11 279.13 418.93 281.55 427.00 299.00
C 428.81 301.34 431.54 302.70 433.00 305.00
C 441.63 305.20 449.20 309.79 458.01 309.99 C 466.82 310.20 477.20 311.89 486.00 312.00 C 494.80 312.11 504.90 312.20 514.00 312.00 C 523.10 311.80 533.15 309.58 542.00 310.00 C 550.85 310.42 558.51 303.33 567.00 305.00
C 568.27 301.20 576.43 299.20 575.93 293.93 C 575.42 288.66 572.46 284.57 568.00 282.00
C 563.23 279.26 555.46 277.43 550.00 277.00
C 545.10 276.61 539.22 276.41 535.00 276.00
C 528.00 276.00 521.00 276.00 514.00 276.00
C 504.67 276.00 495.33 276.00 486.00 276.00
C 479.33 276.00 472.67 276.00 466.00 276.00
C 464.77 276.17 462.93 277.01 461.00 277.00 Z"/>
</g>
<g fill="#333D51" fill-opacity="0.38" stroke="None">
<path d="
M 550.00 277.00 
C 545.57 276.14 540.15 276.00 535.00 276.00
C 539.22 276.41 545.10 276.61 550.00 277.00 Z"/>
</g>
<g fill="#E5ECEC" fill-opacity="0.27" stroke="None">
<path d="
M 448.00 278.00 
C 451.58 277.86 455.07 277.64 458.00 277.00
C 455.40 277.00 452.58 276.68 450.00 277.00
C 449.11 277.11 448.41 277.91 448.00 278.00 Z"/>
</g>
<g fill="#E5ECEC" fill-opacity="0.45" stroke="None">
<path d="
M 448.00 278.00 
C 442.86 278.20 437.57 279.07 433.00 281.00
C 430.10 282.56 425.75 287.25 424.00 290.00
C 424.00 290.00 423.99 290.50 424.00 291.00
C 424.09 294.73 424.97 296.37 427.00 299.00
C 418.93 281.55 452.11 279.13 461.00 277.00
C 460.00 277.00 459.00 277.00 458.00 277.00
C 455.07 277.64 451.58 277.86 448.00 278.00 Z"/>
</g>
<g fill="#333D51" fill-opacity="0.36" stroke="None">
<path d="
M 568.00 282.00 
C 572.46 284.57 575.42 288.66 575.93 293.93 C 576.43 299.20 568.27 301.20 567.00 305.00
C 567.22 305.04 567.77 305.74 568.00 306.00
C 573.80 300.92 578.24 294.01 577.00 286.00
C 571.76 288.69 571.75 279.15 567.00 279.00
C 568.16 279.31 568.20 282.34 568.00 282.00 Z"/>
</g>
<g fill="#333D51" fill-opacity="0.08" stroke="None">
<path d="
M 424.00 290.00 
C 425.75 287.25 430.10 282.56 433.00 281.00
C 429.20 282.60 424.42 285.48 424.00 290.00 Z"/>
</g>
<g fill="#333D51" fill-opacity="0.47" stroke="None">
<path d="
M 432.00 305.00 
C 432.35 305.23 433.00 305.00 433.00 305.00
C 431.54 302.70 428.81 301.34 427.00 299.00
C 424.97 296.37 424.09 294.73 424.00 291.00
C 420.49 295.56 428.23 302.59 432.00 305.00 Z"/>
</g>
<g fill="#C4A060" fill-opacity="0.97" stroke="None">
<path d="
M 360.00 499.00 
C 370.47 495.91 379.63 485.95 390.00 482.00
C 387.94 478.13 389.48 473.28 389.00 469.00
C 389.00 460.41 385.92 443.02 390.00 436.00
C 394.54 428.18 409.54 425.59 417.08 420.08 C 424.63 414.57 436.19 409.18 444.70 404.70 C 453.21 400.22 463.37 392.61 472.23 389.23 C 481.09 385.85 492.30 374.19 502.00 376.00 C 511.70 377.81 520.32 387.72 529.70 391.30 C 539.07 394.89 548.38 401.83 557.25 406.75 C 566.11 411.68 577.03 415.72 585.08 421.92 C 593.13 428.12 608.26 428.31 610.00 440.00 C 611.73 451.70 608.70 470.64 610.00 483.00
C 620.30 486.99 630.42 493.55 640.00 499.00
C 641.14 499.03 641.72 500.53 643.00 500.00
C 639.02 489.12 634.58 478.45 630.32 467.68 C 626.06 456.91 622.19 445.81 617.93 435.07 C 613.66 424.34 609.60 413.33 605.32 402.68 C 601.05 392.02 597.64 380.41 592.92 370.08 C 588.21 359.74 585.38 347.79 579.98 338.02 C 574.57 328.26 575.31 314.44 568.00 306.00
C 567.77 305.74 567.22 305.04 567.00 305.00
C 558.51 303.33 550.85 310.42 542.00 310.00 C 533.15 309.58 523.10 311.80 514.00 312.00 C 504.90 312.20 494.80 312.11 486.00 312.00 C 477.20 311.89 466.82 310.20 458.01 309.99 C 449.20 309.79 441.63 305.20 433.00 305.00
C 433.00 305.00 432.35 305.23 432.00 305.00
C 406.92 370.02 381.50 434.84 357.00 500.00
C 357.89 500.83 359.41 498.75 360.00 499.00 Z"/>
</g>
<g fill="#000000" fill-opacity="1.00" stroke="None">
<path d="
M 390.00 436.00 
C 388.22 440.59 390.30 447.97 390.00 453.00 C 389.70 458.03 389.43 464.60 389.00 469.00
C 389.48 473.28 387.94 478.13 390.00 482.00
C 379.63 485.95 370.47 495.91 360.00 499.00
C 362.25 499.94 374.15 500.26 373.00 506.00
C 377.43 502.96 384.44 501.29 389.00 498.00
C 392.17 510.78 383.46 532.85 397.70 539.31 C 411.93 545.76 418.41 552.80 432.00 559.00
C 435.20 534.82 397.86 541.69 399.00 519.00 C 400.14 496.31 400.83 470.75 399.00 448.00
C 405.81 450.64 414.09 452.92 420.08 457.92 C 426.06 462.93 434.93 463.65 440.23 469.77 C 445.53 475.90 440.63 490.25 442.00 499.00 C 443.37 507.75 440.97 521.77 442.00 531.00
C 447.25 527.34 443.70 531.06 445.77 534.23 C 447.84 537.40 448.83 541.76 452.00 544.00
C 452.00 521.67 452.00 499.33 452.00 477.00
C 466.12 481.79 469.19 488.48 484.08 493.92 C 498.96 499.37 494.40 516.93 494.00 532.00 C 493.60 547.07 494.30 566.53 494.00 582.00
C 481.50 577.99 474.23 569.13 461.77 564.23 C 449.31 559.33 451.58 543.08 442.00 534.00
C 441.78 539.04 442.69 544.33 441.00 549.00
C 443.50 550.03 445.03 554.58 448.00 552.00
C 447.85 554.84 443.73 555.05 442.00 557.00
C 445.97 548.25 429.05 553.02 434.00 560.00
C 437.58 557.05 437.76 558.54 436.00 562.00
C 447.32 565.25 458.10 576.47 469.08 579.92 C 480.05 583.38 490.58 598.79 502.07 596.07 C 513.56 593.35 522.94 582.05 534.70 577.70 C 546.45 573.34 554.86 564.34 567.23 559.23 C 579.60 554.12 585.69 545.89 599.70 540.70 C 613.70 535.50 610.33 513.26 610.00 499.00
C 618.10 500.61 624.12 507.34 632.00 510.00
C 630.46 505.59 637.05 500.69 640.00 499.00
C 630.42 493.55 620.30 486.99 610.00 483.00
C 608.70 470.64 611.73 451.70 610.00 440.00 C 608.26 428.31 593.13 428.12 585.08 421.92 C 577.03 415.72 566.11 411.68 557.25 406.75 C 548.38 401.83 539.07 394.89 529.70 391.30 C 520.32 387.72 511.70 377.81 502.00 376.00 C 492.30 374.19 481.09 385.85 472.23 389.23 C 463.37 392.61 453.21 400.22 444.70 404.70 C 436.19 409.18 424.63 414.57 417.08 420.08 C 409.54 425.59 394.54 428.18 390.00 436.00
M 507.00 391.00 
C 518.19 396.72 528.63 403.61 540.00 409.00
C 538.01 414.27 530.36 414.77 526.00 418.00
C 522.80 420.04 519.75 422.38 516.00 424.00
C 505.07 428.72 497.78 433.64 487.75 425.25 C 477.73 416.85 468.84 417.75 459.00 410.00
C 465.58 404.75 474.03 401.95 481.00 397.00
C 484.85 394.25 490.16 390.06 495.00 389.00
C 495.48 388.90 496.00 389.00 496.00 389.00
C 498.49 383.53 504.55 389.43 507.00 391.00
M 458.00 422.00 
C 461.40 423.88 464.49 425.52 468.00 427.00
C 472.27 428.80 481.48 431.96 484.00 436.00
C 484.43 436.17 485.00 436.00 485.00 436.00
C 486.91 436.36 488.56 437.85 488.00 440.00
C 480.69 443.33 473.32 447.67 466.00 451.00
C 460.81 453.19 454.46 457.40 449.31 459.31 C 444.15 461.21 436.74 455.04 432.00 453.00
C 426.02 450.42 412.41 445.47 409.00 440.00
C 408.57 439.83 408.00 440.00 408.00 440.00
C 407.16 439.18 406.78 438.40 407.00 437.00
C 413.71 434.66 419.36 429.78 426.00 427.00
C 426.43 426.83 427.00 427.00 427.00 427.00
C 429.06 423.71 435.46 421.53 439.00 420.00
C 441.06 419.11 443.79 417.58 446.00 417.00
C 450.47 415.82 454.20 419.39 458.00 422.00
M 557.00 419.00 
C 557.34 419.23 558.00 419.00 558.00 419.00
C 563.07 420.99 567.81 424.01 572.00 427.00
C 574.77 428.59 577.15 429.77 580.00 431.00
C 583.13 432.35 588.19 434.10 590.00 437.00
C 590.43 437.17 591.00 437.00 591.00 437.00
C 596.58 438.30 584.04 444.11 582.00 445.00
C 580.41 445.69 578.65 446.19 577.00 447.00
C 569.51 451.60 565.05 453.84 556.00 452.00
C 552.75 451.71 549.53 451.07 546.00 451.00
C 541.86 450.92 538.31 450.81 535.00 449.00
C 534.50 448.99 534.00 449.00 534.00 449.00
C 526.28 447.31 519.46 440.12 511.00 440.00
C 513.37 436.13 522.16 429.61 528.08 429.08 C 533.99 428.54 539.81 439.97 546.00 440.00
C 548.07 438.41 548.46 432.38 549.00 430.00
C 549.53 427.68 552.82 411.23 557.00 419.00
M 528.00 460.00 
C 532.09 461.76 546.60 467.26 537.00 471.00
C 536.04 471.37 535.01 471.54 534.00 472.00
C 530.24 474.45 526.46 477.25 522.00 479.00
C 521.57 479.17 521.00 479.00 521.00 479.00
C 515.83 487.28 499.93 491.95 493.00 487.00
C 490.23 485.40 487.88 484.21 485.00 483.00
C 480.70 481.19 476.73 478.56 473.00 476.00
C 468.42 473.47 464.07 470.34 459.00 469.00
C 470.62 459.18 486.82 451.99 501.00 445.00
C 509.19 450.77 518.66 456.00 528.00 460.00
M 590.00 446.00 
C 584.84 454.70 595.33 449.84 600.00 448.00
C 600.34 463.47 599.55 481.81 600.00 497.00 C 600.45 512.19 603.32 529.64 588.92 534.92 C 574.53 540.21 571.11 548.05 557.00 552.00
C 557.00 534.00 557.00 516.00 557.00 498.00
C 553.95 500.24 551.03 503.10 547.00 503.00
C 548.90 516.37 544.47 529.62 547.00 543.00 C 549.53 556.38 542.87 563.50 531.77 567.77 C 520.67 572.04 515.82 578.34 505.00 582.00
C 503.07 568.49 504.29 549.43 504.00 536.00 C 503.71 522.57 509.97 504.76 499.00 498.00
C 501.28 497.45 502.59 495.01 505.00 495.00
C 506.09 496.20 503.32 497.92 505.00 500.00
C 512.38 497.11 519.33 490.68 526.70 487.70 C 534.06 484.71 541.80 476.41 549.00 479.00
C 547.31 483.48 551.52 488.76 547.00 494.00
C 550.21 493.30 553.69 490.43 557.00 493.00
C 557.40 485.66 552.71 475.19 558.75 469.75 C 564.80 464.32 575.06 465.54 572.00 456.00
C 576.95 458.69 577.82 459.23 583.08 456.08 C 588.34 452.93 586.19 450.91 583.00 449.00
C 585.68 448.95 587.14 445.75 590.00 446.00 Z"/>
</g>
<g fill="#333D51" fill-opacity="1.00" stroke="None">
<path d="
M 496.00 389.00 
C 499.85 386.57 503.57 389.25 507.00 391.00
C 504.55 389.43 498.49 383.53 496.00 389.00 Z"/>
</g>
<g fill="#E5ECEC" fill-opacity="1.00" stroke="None">
<path d="
M 496.00 389.00 
C 496.00 389.00 495.48 388.90 495.00 389.00
C 491.18 392.74 485.65 394.33 481.00 397.00
C 474.03 401.95 465.58 404.75 459.00 410.00
C 468.84 417.75 477.73 416.85 487.75 425.25 C 497.78 433.64 505.07 428.72 516.00 424.00
C 519.17 422.27 522.51 419.78 526.00 418.00
C 530.36 414.77 538.01 414.27 540.00 409.00
C 528.63 403.61 518.19 396.72 507.00 391.00
C 503.57 389.25 499.85 386.57 496.00 389.00 Z"/>
</g>
<g fill="#333D51" fill-opacity="1.00" stroke="None">
<path d="
M 481.00 397.00 
C 485.65 394.33 491.18 392.74 495.00 389.00
C 490.16 390.06 484.85 394.25 481.00 397.00 Z"/>
</g>
<g fill="#333D51" fill-opacity="1.00" stroke="None">
<path d="
M 446.00 417.00 
C 449.77 416.69 454.79 420.23 458.00 422.00
C 454.20 419.39 450.47 415.82 446.00 417.00 Z"/>
</g>
<g fill="#E5ECEC" fill-opacity="1.00" stroke="None">
<path d="
M 439.00 420.00 
C 435.14 422.10 431.43 425.26 427.00 427.00
C 427.00 427.00 426.43 426.83 426.00 427.00
C 422.96 431.86 408.18 433.74 408.00 440.00
C 408.00 440.00 408.57 439.83 409.00 440.00
C 417.24 443.24 424.58 448.95 432.00 453.00
C 436.74 455.04 444.15 461.21 449.31 459.31 C 454.46 457.40 460.81 453.19 466.00 451.00
C 472.91 447.35 479.81 442.55 487.00 439.00
C 486.70 437.75 485.17 437.29 485.00 436.00
C 485.00 436.00 484.43 436.17 484.00 436.00
C 478.21 433.73 473.19 429.74 468.00 427.00
C 464.49 425.52 461.40 423.88 458.00 422.00
C 454.79 420.23 449.77 416.69 446.00 417.00
C 443.79 417.58 441.06 419.11 439.00 420.00 Z"/>
</g>
<g fill="#333D51" fill-opacity="1.00" stroke="None">
<path d="
M 549.00 430.00 
C 550.20 426.32 552.69 422.29 553.00 418.00
C 554.56 417.59 555.69 418.46 557.00 419.00
C 552.82 411.23 549.53 427.68 549.00 430.00 Z"/>
</g>
<g fill="#333D51" fill-opacity="1.00" stroke="None">
<path d="
M 516.00 424.00 
C 519.75 422.38 522.80 420.04 526.00 418.00
C 522.51 419.78 519.17 422.27 516.00 424.00 Z"/>
</g>
<g fill="#E5ECEC" fill-opacity="1.00" stroke="None">
<path d="
M 549.00 430.00 
C 548.46 432.38 548.07 438.41 546.00 440.00
C 541.89 443.16 535.15 431.43 530.25 430.75 C 525.36 430.06 516.03 435.50 512.00 439.00
C 519.50 441.46 528.11 443.60 534.00 449.00
C 534.00 449.00 534.50 448.99 535.00 449.00
C 538.67 449.09 542.90 450.70 546.00 451.00
C 549.53 451.07 552.75 451.71 556.00 452.00
C 564.60 452.76 569.78 450.54 577.00 447.00
C 578.65 446.19 580.41 445.69 582.00 445.00
C 583.97 443.91 592.85 439.24 591.00 437.00
C 591.00 437.00 590.43 437.17 590.00 437.00
C 586.25 435.53 583.19 432.74 580.00 431.00
C 577.15 429.77 574.77 428.59 572.00 427.00
C 567.91 424.65 560.52 423.05 558.00 419.00
C 558.00 419.00 557.34 419.23 557.00 419.00
C 555.69 418.46 554.56 417.59 553.00 418.00
C 552.69 422.29 550.20 426.32 549.00 430.00 Z"/>
</g>
<g fill="#333D51" fill-opacity="1.00" stroke="None">
<path d="
M 572.00 427.00 
C 567.81 424.01 563.07 420.99 558.00 419.00
C 560.52 423.05 567.91 424.65 572.00 427.00 Z"/>
</g>
<g fill="#333D51" fill-opacity="1.00" stroke="None">
<path d="
M 427.00 427.00 
C 431.43 425.26 435.14 422.10 439.00 420.00
C 435.46 421.53 429.06 423.71 427.00 427.00 Z"/>
</g>
<g fill="#333D51" fill-opacity="1.00" stroke="None">
<path d="
M 408.00 440.00 
C 408.18 433.74 422.96 431.86 426.00 427.00
C 419.36 429.78 413.71 434.66 407.00 437.00
C 406.78 438.40 407.16 439.18 408.00 440.00 Z"/>
</g>
<g fill="#333D51" fill-opacity="1.00" stroke="None">
<path d="
M 484.00 436.00 
C 481.48 431.96 472.27 428.80 468.00 427.00
C 473.19 429.74 478.21 433.73 484.00 436.00 Z"/>
</g>
<g fill="#333D51" fill-opacity="1.00" stroke="None">
<path d="
M 534.00 449.00 
C 528.11 443.60 519.50 441.46 512.00 439.00
C 516.03 435.50 525.36 430.06 530.25 430.75 C 535.15 431.43 541.89 443.16 546.00 440.00
C 539.81 439.97 533.99 428.54 528.08 429.08 C 522.16 429.61 513.37 436.13 511.00 440.00
C 519.46 440.12 526.28 447.31 534.00 449.00 Z"/>
</g>
<g fill="#333D51" fill-opacity="1.00" stroke="None">
<path d="
M 590.00 437.00 
C 588.19 434.10 583.13 432.35 580.00 431.00
C 583.19 432.74 586.25 435.53 590.00 437.00 Z"/>
</g>
<g fill="#333D51" fill-opacity="1.00" stroke="None">
<path d="
M 389.00 469.00 
C 389.43 464.60 389.70 458.03 390.00 453.00 C 390.30 447.97 388.22 440.59 390.00 436.00
C 385.92 443.02 389.00 460.41 389.00 469.00 Z"/>
</g>
<g fill="#333D51" fill-opacity="1.00" stroke="None">
<path d="
M 466.00 451.00 
C 473.32 447.67 480.69 443.33 488.00 440.00
C 488.56 437.85 486.91 436.36 485.00 436.00
C 485.17 437.29 486.70 437.75 487.00 439.00
C 479.81 442.55 472.91 447.35 466.00 451.00 Z"/>
</g>
<g fill="#333D51" fill-opacity="1.00" stroke="None">
<path d="
M 582.00 445.00 
C 584.04 444.11 596.58 438.30 591.00 437.00
C 592.85 439.24 583.97 443.91 582.00 445.00 Z"/>
</g>
<g fill="#333D51" fill-opacity="1.00" stroke="None">
<path d="
M 432.00 453.00 
C 424.58 448.95 417.24 443.24 409.00 440.00
C 412.41 445.47 426.02 450.42 432.00 453.00 Z"/>
</g>
<g fill="#E5ECEC" fill-opacity="1.00" stroke="None">
<path d="
M 473.00 476.00 
C 477.01 478.21 481.19 480.99 485.00 483.00
C 487.88 484.21 490.23 485.40 493.00 487.00
C 503.36 492.96 511.28 482.80 521.00 479.00
C 521.00 479.00 521.57 479.17 522.00 479.00
C 524.09 475.66 530.44 473.61 534.00 472.00
C 535.01 471.54 536.04 471.37 537.00 471.00
C 538.19 470.33 539.89 468.36 540.00 467.00
C 536.15 464.46 530.85 463.68 528.00 460.00
C 518.66 456.00 509.19 450.77 501.00 445.00
C 486.82 451.99 470.62 459.18 459.00 469.00
C 464.07 470.34 468.42 473.47 473.00 476.00 Z"/>
</g>
<g fill="#333D51" fill-opacity="1.00" stroke="None">
<path d="
M 590.00 446.00 
C 587.14 445.75 585.68 448.95 583.00 449.00
C 586.19 450.91 588.34 452.93 583.08 456.08 C 577.82 459.23 576.95 458.69 572.00 456.00
C 575.06 465.54 564.80 464.32 558.75 469.75 C 552.71 475.19 557.40 485.66 557.00 493.00
C 553.69 490.43 550.21 493.30 547.00 494.00
C 551.52 488.76 547.31 483.48 549.00 479.00
C 541.80 476.41 534.06 484.71 526.70 487.70 C 519.33 490.68 512.38 497.11 505.00 500.00
C 503.32 497.92 506.09 496.20 505.00 495.00
C 502.59 495.01 501.28 497.45 499.00 498.00
C 509.97 504.76 503.71 522.57 504.00 536.00 C 504.29 549.43 503.07 568.49 505.00 582.00
C 515.82 578.34 520.67 572.04 531.77 567.77 C 542.87 563.50 549.53 556.38 547.00 543.00 C 544.47 529.62 548.90 516.37 547.00 503.00
C 551.03 503.10 553.95 500.24 557.00 498.00
C 557.00 516.00 557.00 534.00 557.00 552.00
C 571.11 548.05 574.53 540.21 588.92 534.92 C 603.32 529.64 600.45 512.19 600.00 497.00 C 599.55 481.81 600.34 463.47 600.00 448.00
C 595.33 449.84 584.84 454.70 590.00 446.00
M 556.00 494.00 
C 556.24 498.64 550.59 500.84 547.00 502.00
C 545.55 496.79 551.51 493.68 556.00 494.00 Z"/>
</g>
<g fill="#333D51" fill-opacity="1.00" stroke="None">
<path d="
M 556.00 452.00 
C 565.05 453.84 569.51 451.60 577.00 447.00
C 569.78 450.54 564.60 452.76 556.00 452.00 Z"/>
</g>
<g fill="#333D51" fill-opacity="0.98" stroke="None">
<path d="
M 373.00 506.00 
C 372.33 506.46 370.70 508.31 370.00 509.00
C 363.26 515.61 348.49 522.22 351.00 534.00 C 353.51 545.78 366.15 548.61 374.00 555.00
C 380.23 561.12 394.04 562.03 395.00 571.00
C 396.48 566.73 404.13 569.99 403.00 574.00
C 405.98 572.26 409.42 574.12 406.00 577.00
C 408.71 577.72 414.20 576.22 411.00 581.00
C 418.53 576.65 426.47 585.95 435.25 589.75 C 444.04 593.54 450.49 599.94 459.93 604.07 C 469.36 608.21 484.97 607.31 496.00 607.00 C 507.03 606.69 523.69 608.38 533.93 605.93 C 544.16 603.48 550.05 597.27 558.77 592.77 C 567.49 588.27 575.44 583.48 583.92 578.92 C 592.40 574.36 600.32 569.15 608.77 564.77 C 617.22 560.39 625.33 554.72 633.77 550.77 C 642.21 546.82 652.10 539.38 650.93 529.07 C 649.75 518.77 639.56 514.40 632.00 510.00
C 624.12 507.34 618.10 500.61 610.00 499.00
C 610.33 513.26 613.70 535.50 599.70 540.70 C 585.69 545.89 579.60 554.12 567.23 559.23 C 554.86 564.34 546.45 573.34 534.70 577.70 C 522.94 582.05 513.56 593.35 502.07 596.07 C 490.58 598.79 480.05 583.38 469.08 579.92 C 458.10 576.47 447.32 565.25 436.00 562.00
C 437.76 558.54 437.58 557.05 434.00 560.00
C 429.05 553.02 445.97 548.25 442.00 557.00
C 443.73 555.05 447.85 554.84 448.00 552.00
C 445.03 554.58 443.50 550.03 441.00 549.00
C 442.69 544.33 441.78 539.04 442.00 534.00
C 451.58 543.08 449.31 559.33 461.77 564.23 C 474.23 569.13 481.50 577.99 494.00 582.00
C 494.30 566.53 493.60 547.07 494.00 532.00 C 494.40 516.93 498.96 499.37 484.08 493.92 C 469.19 488.48 466.12 481.79 452.00 477.00
C 452.00 499.33 452.00 521.67 452.00 544.00
C 448.83 541.76 447.84 537.40 445.77 534.23 C 443.70 531.06 447.25 527.34 442.00 531.00
C 440.97 521.77 443.37 507.75 442.00 499.00 C 440.63 490.25 445.53 475.90 440.23 469.77 C 434.93 463.65 426.06 462.93 420.08 457.92 C 414.09 452.92 405.81 450.64 399.00 448.00
C 400.83 470.75 400.14 496.31 399.00 519.00 C 397.86 541.69 435.20 534.82 432.00 559.00
C 418.41 552.80 411.93 545.76 397.70 539.31 C 383.46 532.85 392.17 510.78 389.00 498.00
C 384.44 501.29 377.43 502.96 373.00 506.00
M 437.00 550.00 
C 436.04 555.39 430.32 551.32 432.00 547.00
C 433.67 548.11 435.13 549.30 437.00 550.00 Z"/>
</g>
<g fill="#333D51" fill-opacity="1.00" stroke="None">
<path d="
M 546.00 451.00 
C 542.90 450.70 538.67 449.09 535.00 449.00
C 538.31 450.81 541.86 450.92 546.00 451.00 Z"/>
</g>
<g fill="#333D51" fill-opacity="1.00" stroke="None">
<path d="
M 537.00 471.00 
C 546.60 467.26 532.09 461.76 528.00 460.00
C 530.85 463.68 536.15 464.46 540.00 467.00
C 539.89 468.36 538.19 470.33 537.00 471.00 Z"/>
</g>
<g fill="#333D51" fill-opacity="1.00" stroke="None">
<path d="
M 522.00 479.00 
C 526.46 477.25 530.24 474.45 534.00 472.00
C 530.44 473.61 524.09 475.66 522.00 479.00 Z"/>
</g>
<g fill="#333D51" fill-opacity="1.00" stroke="None">
<path d="
M 485.00 483.00 
C 481.19 480.99 477.01 478.21 473.00 476.00
C 476.73 478.56 480.70 481.19 485.00 483.00 Z"/>
</g>
<g fill="#333D51" fill-opacity="1.00" stroke="None">
<path d="
M 493.00 487.00 
C 499.93 491.95 515.83 487.28 521.00 479.00
C 511.28 482.80 503.36 492.96 493.00 487.00 Z"/>
</g>
<g fill="#000000" fill-opacity="1.00" stroke="None">
<path d="
M 556.00 494.00 
C 551.51 493.68 545.55 496.79 547.00 502.00
C 550.59 500.84 556.24 498.64 556.00 494.00 Z"/>
</g>
<g fill="#333D51" fill-opacity="0.35" stroke="None">
<path d="
M 374.00 555.00 
C 366.15 548.61 353.51 545.78 351.00 534.00 C 348.49 522.22 363.26 515.61 370.00 509.00
C 361.35 514.77 345.26 520.41 349.01 533.99 C 352.76 547.57 363.30 548.85 374.00 555.00 Z"/>
</g>
<g fill="#000000" fill-opacity="1.00" stroke="None">
<path d="
M 437.00 550.00 
C 435.13 549.30 433.67 548.11 432.00 547.00
C 430.32 551.32 436.04 555.39 437.00 550.00 Z"/>
</g>
</svg>